<svg width="105" height="105" viewBox="0 0 105 105" fill="none" xmlns="http://www.w3.org/2000/svg">
<g clip-path="url(#clip0_2_252)">
<path fill-rule="evenodd" clip-rule="evenodd" d="M31.2675 90C30.1647 90 30 88.9234 30 88.2789V20.2896C30 17.924 31.924 16 34.2896 16H72.4593C74.8273 16 76.7537 17.924 76.7537 20.2896V88.2789C76.7537 88.8255 76.62 89.2528 76.3717 89.5226C76.1497 89.7613 75.8346 89.8807 75.4384 89.8807C74.6268 89.8807 73.6385 89.377 72.7983 88.5367L53.3745 69.1105L33.9506 88.5367C33.0221 89.4677 32.0434 90 31.2675 90ZM69.738 80.867C70.3133 81.4399 70.9101 81.743 71.4639 81.743C72.3304 81.743 72.9391 80.9959 72.9391 79.9288V22.6767C72.9391 21.0965 71.6548 19.817 70.077 19.817H36.6815C35.1012 19.817 33.8146 21.0988 33.8146 22.6767V79.9288C33.8146 80.4277 33.9435 80.8622 34.1822 81.1821C34.4519 81.5401 34.8458 81.7407 35.2946 81.7407C35.8436 81.7407 36.4404 81.4375 37.0181 80.8646L53.3792 64.501L69.738 80.867Z" fill="#1C3A56"/>
<path fill-rule="evenodd" clip-rule="evenodd" d="M67.2005 41.9C67.1909 41.9 67.1862 41.8857 67.1718 41.8809C67.0453 41.826 66.9069 41.7878 66.7517 41.7878C66.6968 41.7878 66.6539 41.8117 66.6013 41.8164C63.004 41.7281 57.4253 41.5825 57.4253 41.5825C57.4253 41.5825 55.5276 36.2139 54.3317 32.8314C54.303 32.7431 54.2672 32.6691 54.2195 32.5927C54.1693 32.4948 54.1168 32.4256 54.0667 32.397C53.8853 32.2299 53.6466 32.1177 53.3816 32.1177C53.1166 32.1177 52.8731 32.2299 52.6965 32.397C52.6464 32.4256 52.5986 32.4948 52.5461 32.5927C52.496 32.6667 52.4578 32.7431 52.4291 32.8314C51.2332 36.2139 49.3355 41.5825 49.3355 41.5825C49.3355 41.5825 43.752 41.7281 40.1642 41.8164C40.1093 41.8117 40.0616 41.7878 40.0067 41.7878C39.8563 41.7878 39.7226 41.826 39.5866 41.8809C39.577 41.8857 39.577 41.9 39.5627 41.9C39.2333 42.0623 38.9969 42.4013 38.9969 42.7975C38.9969 42.9981 39.0709 43.1699 39.1688 43.3299C39.1688 43.3299 39.1688 43.3299 39.1736 43.3299C39.2571 43.4707 39.3669 43.5734 39.503 43.6569C42.3556 45.8435 46.8338 49.2761 46.8338 49.2761C46.8338 49.2761 45.2535 54.6208 44.2271 58.063C44.1435 58.2086 44.0862 58.3662 44.0862 58.5381C44.0862 59.1014 44.5422 59.5597 45.0984 59.5597C45.4015 59.5597 45.6665 59.4189 45.8479 59.2112C46.5712 58.7171 47.3852 58.1585 48.2088 57.588L53.3768 54.0336L58.5497 57.588C59.3756 58.1561 60.1848 58.7171 60.9057 59.2112C61.0919 59.4213 61.3545 59.5597 61.6529 59.5597C62.2115 59.5597 62.665 59.1038 62.665 58.5381C62.665 58.3662 62.6101 58.2063 62.5337 58.063C61.5073 54.6208 59.9175 49.2761 59.9175 49.2761C59.9175 49.2761 64.4004 45.8435 67.253 43.6569C67.3891 43.5734 67.5037 43.4707 67.5824 43.3299C67.6851 43.1723 67.7543 42.9981 67.7543 42.7975C67.7615 42.4037 67.5323 42.0623 67.2005 41.9ZM56.7856 48.0611L58.5855 54.1076L53.384 50.5294L48.1777 54.1076L49.9776 48.0611L44.9671 44.2155L51.2786 44.0579L53.384 38.0974L55.4846 44.0579L61.8033 44.2155L56.7856 48.0611Z" fill="#1C3A56"/>
</g>
<defs>
<clipPath id="clip0_2_252">
<rect width="105" height="105" fill="white"/>
</clipPath>
</defs>
</svg>
