<svg width="105" height="105" viewBox="0 0 105 105" fill="none" xmlns="http://www.w3.org/2000/svg">
<g clip-path="url(#clip0_2_1610)">
<path d="M72.2123 80.9998C71.4748 80.9998 70.7811 80.6748 70.3061 80.1154C69.428 79.0654 69.5655 77.4936 70.6155 76.6154L99.2746 52.5844L70.4405 28.394C69.3905 27.5159 69.253 25.944 70.1342 24.894C70.6061 24.3284 71.303 24.0034 72.0373 24.0034C72.6248 24.0034 73.1873 24.2065 73.6373 24.5878L104.74 50.6876C105.303 51.1532 105.625 51.8532 105.625 52.5813C105.625 53.3219 105.3 54.0157 104.734 54.4875L73.8092 80.4154C73.3623 80.7967 72.7936 80.9998 72.2123 80.9998Z" fill="#0D1E26"/>
<path d="M32.7908 80.9999C32.2033 80.9999 31.6377 80.7968 31.1939 80.4156L0.266075 54.4814C-0.299545 54.0158 -0.624542 53.3252 -0.624542 52.5814C-0.624542 51.8471 -0.299545 51.1533 0.26295 50.6815L31.3658 24.5817C31.8158 24.2036 32.3814 23.9973 32.9627 23.9973C33.7002 23.9973 34.3939 24.3223 34.8658 24.8879C35.747 25.9379 35.6095 27.5098 34.5595 28.3879L5.7254 52.5783L34.3845 76.6094C35.4345 77.4875 35.572 79.0593 34.6939 80.1093C34.2189 80.6749 33.5283 80.9999 32.7908 80.9999Z" fill="#0D1E26"/>
<path d="M45.95 80.9998C45.7344 80.9998 45.5375 80.9779 45.3469 80.9279C44.0188 80.6029 43.2063 79.2498 43.5344 77.9186L56.4656 25.8909C56.7406 24.7784 57.7343 24.0034 58.8749 24.0034C59.0749 24.0034 59.2812 24.0315 59.4749 24.0753C60.8062 24.4065 61.6187 25.7597 61.2874 27.0909L48.3563 79.1186C48.0844 80.2248 47.0938 80.9998 45.95 80.9998Z" fill="#0D1E26"/>
</g>
<defs>
<clipPath id="clip0_2_1610">
<rect width="105" height="105" fill="white"/>
</clipPath>
</defs>
</svg>
