<svg width="79" height="79" viewBox="0 0 79 79" fill="none" xmlns="http://www.w3.org/2000/svg">
<g clip-path="url(#clip0_2_2028)">
<path d="M69.3155 -0.331909H9.68447C4.34699 -0.331909 0 4.01508 0 9.34991V48.4675C0 53.8077 4.34434 58.1493 9.68447 58.1493H42.3413V76.9659C42.3413 77.9538 42.9521 78.838 43.8762 79.1779C44.1497 79.2815 44.4259 79.332 44.7047 79.332C45.3765 79.332 46.0298 79.0478 46.4918 78.5167L64.1347 58.152H69.3155C74.6557 58.152 79 53.8077 79 48.4702V9.34991C79 4.01508 74.653 -0.331909 69.3155 -0.331909ZM74.2759 48.4702C74.2759 51.2 72.0507 53.4279 69.3155 53.4279C69.3155 53.4279 63.2 53.4279 63.1681 53.4279C62.4671 53.3934 61.7634 53.6749 61.2668 54.2405L47.0681 70.6327V55.7913C47.0681 54.4848 46.0112 53.4279 44.7047 53.4279H9.68447C6.952 53.4279 4.72938 51.2 4.72938 48.4702V9.34991C4.72938 6.62009 6.952 4.39747 9.68447 4.39747H69.3129C72.048 4.39747 74.2733 6.62009 74.2733 9.34991V48.4702H74.2759Z" fill="#1C3A56"/>
<path d="M65.9617 15.2556H13.0383C11.7345 15.2556 10.6749 16.3151 10.6749 17.6243C10.6749 18.9255 11.7318 19.9877 13.0383 19.9877H65.9617C67.2681 19.9877 68.3277 18.9281 68.3277 17.6243C68.325 16.3178 67.2681 15.2556 65.9617 15.2556Z" fill="#1C3A56"/>
<path d="M65.9617 26.5492H13.0383C11.7345 26.5492 10.6749 27.6034 10.6749 28.9126C10.6749 30.2111 11.7318 31.2759 13.0383 31.2759H65.9617C67.2681 31.2759 68.3277 30.2137 68.3277 28.9126C68.325 27.6061 67.2681 26.5492 65.9617 26.5492Z" fill="#1C3A56"/>
<path d="M38.0899 37.835H13.0383C11.7345 37.835 10.6749 38.8945 10.6749 40.1983C10.6749 41.5048 11.7318 42.567 13.0383 42.567H38.0899C39.3937 42.567 40.4533 41.5075 40.4533 40.1983C40.4506 38.8945 39.3937 37.835 38.0899 37.835Z" fill="#1C3A56"/>
</g>
<defs>
<clipPath id="clip0_2_2028">
<rect width="79" height="79" fill="white"/>
</clipPath>
</defs>
</svg>
