<svg width="76" height="76" viewBox="0 0 76 76" fill="none" xmlns="http://www.w3.org/2000/svg">
<path d="M44.7308 65.3866H31.1564C29.9186 65.3866 28.921 64.3816 28.921 63.1511V61.58C28.9357 60.2294 28.8695 59.2808 28.7273 58.7513C27.965 55.9595 25.9477 53.6187 23.9942 51.3489C23.3495 50.6062 22.7416 49.8978 22.1828 49.1846C19.3713 45.6083 17.8761 41.3237 17.8761 36.7793C17.8761 25.6855 26.9061 16.6628 38 16.6628C49.0914 16.6628 58.1189 25.6855 58.1189 36.7793C58.1189 41.3262 56.6311 45.6157 53.8123 49.1895C53.3196 49.8218 52.7509 50.4837 52.1578 51.1822C50.1576 53.5353 47.9246 56.1605 47.155 58.9327C47.0202 59.4279 46.954 60.3176 46.9638 61.5628V63.1462C46.9638 64.3816 45.9662 65.3866 44.7308 65.3866ZM33.3967 60.9108H42.4954C42.5199 59.1705 42.689 58.3126 42.8434 57.7537C43.8803 54.0206 46.4491 50.9886 48.7164 48.3267C49.312 47.6256 49.8341 47.0128 50.2973 46.4295C52.4862 43.645 53.6456 40.3139 53.6456 36.7818C53.6456 28.1538 46.6304 21.1337 38.0024 21.1337C29.3744 21.1337 22.3544 28.1538 22.3544 36.7818C22.3544 40.3065 23.5113 43.6401 25.7026 46.4246C26.2198 47.0864 26.786 47.7359 27.3865 48.4296C29.4529 50.8293 32.0143 53.8025 33.0487 57.5797C33.2006 58.1704 33.3771 59.07 33.3967 60.9108Z" fill="#1C3A56"/>
<path d="M44.7308 71.3061H31.1564C29.9186 71.3061 28.921 70.3036 28.921 69.0657C28.921 67.8304 29.9186 66.8328 31.1564 66.8328H44.7308C45.9662 66.8328 46.9638 67.8304 46.9638 69.0657C46.9638 70.3036 45.9662 71.3061 44.7308 71.3061Z" fill="#1C3A56"/>
<path d="M41.3384 77.2182H34.5512C33.3134 77.2182 32.3109 76.2157 32.3109 74.9828C32.3109 73.7474 33.3134 72.7424 34.5512 72.7424H41.3384C42.5689 72.7424 43.5739 73.7474 43.5739 74.9828C43.5739 76.2157 42.5689 77.2182 41.3384 77.2182Z" fill="#1C3A56"/>
<path d="M73.767 39.0171H64.8252C63.5899 39.0171 62.5849 38.0195 62.5849 36.7817C62.5849 35.5463 63.5899 34.5463 64.8252 34.5463H73.767C75.0024 34.5463 76 35.5463 76 36.7817C76 38.0195 75.0024 39.0171 73.767 39.0171Z" fill="#1C3A56"/>
<path d="M11.1772 39.0171H2.23299C0.997613 39.0171 0 38.0195 0 36.7817C0 35.5463 0.997613 34.5463 2.23299 34.5463H11.1747C12.4101 34.5463 13.4151 35.5463 13.4151 36.7817C13.4175 38.0195 12.4126 39.0171 11.1772 39.0171Z" fill="#1C3A56"/>
<path d="M38 12.1993C36.7621 12.1993 35.7596 11.2017 35.7596 9.96383V1.01718C35.7596 -0.215746 36.7621 -1.21826 38 -1.21826C39.2378 -1.21826 40.2354 -0.215746 40.2354 1.01718V9.96138C40.2354 11.1992 39.2378 12.1993 38 12.1993Z" fill="#1C3A56"/>
<path d="M63.281 64.308C62.7123 64.308 62.1412 64.0899 61.7025 63.6511L55.381 57.3272C54.5084 56.457 54.5084 55.0378 55.381 54.1627C56.256 53.2901 57.6704 53.295 58.543 54.1677L64.8644 60.4891C65.7395 61.3642 65.7395 62.7834 64.8644 63.656C64.4281 64.0948 63.8595 64.308 63.281 64.308Z" fill="#1C3A56"/>
<path d="M19.0282 20.0552C18.4595 20.0552 17.886 19.8371 17.4448 19.3983L11.1282 13.0793C10.2531 12.2042 10.2531 10.785 11.1282 9.90995C12.0032 9.03734 13.4175 9.03734 14.2901 9.90995L20.6116 16.2314C21.4867 17.104 21.4867 18.5257 20.6116 19.3983C20.1753 19.8371 19.6042 20.0552 19.0282 20.0552Z" fill="#1C3A56"/>
<path d="M12.7092 64.308C12.138 64.308 11.5669 64.0948 11.1282 63.656C10.2531 62.7834 10.2531 61.3642 11.1282 60.4891L17.4546 54.1628C18.3223 53.2901 19.7366 53.2901 20.6116 54.1628C21.4867 55.0378 21.4867 56.457 20.6116 57.3321L14.2901 63.656C13.8514 64.0923 13.2827 64.308 12.7092 64.308Z" fill="#1C3A56"/>
<path d="M56.9669 20.0552C56.3958 20.0552 55.8247 19.8371 55.3835 19.3983C54.5158 18.5257 54.5158 17.1089 55.3835 16.2363L61.705 9.91484C62.5727 9.04224 63.9968 9.03734 64.8669 9.90994C65.742 10.785 65.742 12.1993 64.8669 13.0744L58.5503 19.3934C58.114 19.8322 57.5429 20.0552 56.9669 20.0552Z" fill="#1C3A56"/>
</svg>
