<svg width="79" height="79" viewBox="0 0 79 79" fill="none" xmlns="http://www.w3.org/2000/svg">
<path d="M73.0511 77.88H7.45367C6.24356 77.88 5.26666 76.9056 5.26666 75.6929V69.1863C5.26666 63.8821 8.58864 59.1349 13.5379 57.3702L29.3186 51.7161V43.7196H33.6926V53.2579C33.6926 54.1804 33.1122 55.007 32.2415 55.318L15.0097 61.4877C11.7992 62.6279 9.64328 65.7244 9.64328 69.1863V73.5085H70.8667V69.1863C70.8667 65.7244 68.7082 62.6357 65.5028 61.4877L48.2658 55.3128C47.3951 55.0019 46.8147 54.1778 46.8147 53.2579V43.165H51.1887V51.7161L66.9772 57.3702C71.9161 59.1349 75.2381 63.8821 75.2381 69.1863V75.6929C75.2355 76.9056 74.2586 77.88 73.0511 77.88Z" fill="#1C3A56"/>
<path d="M39.8183 48.5368C29.0958 48.5368 20.3736 38.2651 20.3736 25.6353C20.3736 13.0056 29.0958 2.73389 39.8183 2.73389C50.5435 2.73389 59.2682 13.0056 59.2682 25.6353C59.2682 38.2651 50.5435 48.5368 39.8183 48.5368ZM39.8183 7.10791C31.5108 7.10791 24.7451 15.418 24.7451 25.6327C24.7451 35.8526 31.5108 44.1627 39.8183 44.1627C48.1336 44.1627 54.8916 35.8526 54.8916 25.6327C54.8916 15.4206 48.1336 7.10791 39.8183 7.10791Z" fill="#1C3A56"/>
<path d="M52.3755 26.4153C48.3461 26.4153 45.0863 24.6662 42.3033 20.9866C39.212 23.9666 34.1202 26.0992 29.4637 26.0992C26.6341 26.0992 24.1905 25.5058 21.7651 24.2361L23.7967 20.3673C25.5872 21.3054 27.3389 21.72 29.4637 21.72C33.7574 21.72 39.028 19.108 40.5257 16.2343C40.8989 15.5295 41.6244 15.076 42.4225 15.0605C43.2466 15.0164 43.9643 15.4673 44.3634 16.1643C47.2319 21.1836 50.0952 22.6865 54.946 21.7614L56.7962 21.5852L57.1926 25.9411L55.555 26.0914C54.4459 26.3013 53.3861 26.4153 52.3755 26.4153Z" fill="#1C3A56"/>
</svg>
